# xmcd CD database file
#
# Track frame offsets:
#	150
#	17197
#	30775
#	43887
#	57767
#	70770
#	83072
#	91702
#	104775
#	119497
#	133517
#	148040
#	163735
#	175535
#	186530
#	200935
#	215910
#	228927
#	244347
#	258687
#
# Disc length: 3588 seconds
#
# Revision: 0
# Processed by: cddbd v1.4PL0 Copyright (c) Steve Scherf et al.
# Submitted via: CDex 1.50Beta7
#
DISCID=2b0e0214
DTITLE=La Mafia - Tejano All Star
DYEAR=2002
DGENRE=Salsa
TTITLE0=SI QUIERE DIOS
TTITLE1=ALAS DE PAPEL
TTITLE2=TENGO UN AMOR
TTITLE3=OH, GIRL
TTITLE4=TE VOY A COMPLACER
TTITLE5=CON TANTO AMOR
TTITLE6=YO QUIERO SER
TTITLE7=SI TU SUPIERAS
TTITLE8=MIRA,MIRA
TTITLE9=NUNCA,NUNCA
TTITLE10=UN MILLON DE BESOS
TTITLE11=NO LO HARA
TTITLE12=REGESA A MI
TTITLE13=PISOTEANDO MI SANGRE
TTITLE14=NO TE DEJARE DE AMAR
TTITLE15=UN BOUQUET DE ROSAS
TTITLE16=TU,TU,Y SOLO TU
TTITLE17=QUEDATE
TTITLE18=DIME PORQUE
TTITLE19=SE ACABO EL AMOR
EXTD=YEAR: 2002
EXTT0=
EXTT1=
EXTT2=
EXTT3=
EXTT4=
EXTT5=
EXTT6=
EXTT7=
EXTT8=
EXTT9=
EXTT10=
EXTT11=
EXTT12=
EXTT13=
EXTT14=
EXTT15=
EXTT16=
EXTT17=
EXTT18=
EXTT19=
PLAYORDER=
